Pacifico-Normal.ufo
<glyph name="zero" format="1">
  <advance width="1203"/>
  <unicode hex="0030"/>
  <outline>
    <contour>
      <point x="515" y="189" type="curve" smooth="yes"/>
      <point x="396" y="189"/>
      <point x="382" y="386"/>
      <point x="382" y="505" type="curve" smooth="yes"/>
      <point x="382" y="724"/>
      <point x="458" y="1230"/>
      <point x="697" y="1230" type="curve" smooth="yes"/>
      <point x="831" y="1230"/>
      <point x="852" y="1058"/>
      <point x="852" y="939" type="curve" smooth="yes"/>
      <point x="852" y="726"/>
      <point x="755" y="189"/>
    </contour>
    <contour>
      <point x="492" y="-19" type="curve" smooth="yes"/>
      <point x="935" y="-19"/>
      <point x="1170" y="465"/>
      <point x="1170" y="902" type="curve" smooth="yes"/>
      <point x="1170" y="1210"/>
      <point x="1028" y="1448"/>
      <point x="703" y="1448" type="curve" smooth="yes"/>
      <point x="263" y="1448"/>
      <point x="44" y="985.999"/>
      <point x="44" y="552" type="curve" smooth="yes"/>
      <point x="44" y="252"/>
      <point x="176" y="-19"/>
    </contour>
  </outline>
</glyph>
<glyph name="equal" format="1">
  <advance width="1707"/>
  <unicode hex="003D"/>
  <outline>
    <contour>
      <point x="518" y="287" type="curve" smooth="yes"/>
      <point x="1312" y="287" type="line" smooth="yes"/>
      <point x="1511" y="287"/>
      <point x="1621" y="320"/>
      <point x="1621" y="450" type="curve" smooth="yes"/>
      <point x="1621" y="497"/>
      <point x="1588" y="512"/>
      <point x="1539" y="512" type="curve" smooth="yes"/>
      <point x="1208" y="512" type="line" smooth="yes"/>
      <point x="1092" y="512"/>
      <point x="859" y="499"/>
      <point x="591" y="511" type="curve" smooth="yes"/>
      <point x="479" y="516"/>
      <point x="349" y="505"/>
      <point x="349" y="415" type="curve" smooth="yes"/>
      <point x="349" y="321"/>
      <point x="410" y="287"/>
    </contour>
    <contour>
      <point x="518" y="687" type="curve" smooth="yes"/>
      <point x="1410" y="701" type="line" smooth="yes"/>
      <point x="1546" y="703"/>
      <point x="1656" y="734"/>
      <point x="1656" y="834" type="curve" smooth="yes"/>
      <point x="1656" y="911"/>
      <point x="1626" y="931"/>
      <point x="1591" y="939" type="curve" smooth="yes"/>
      <point x="1417" y="979"/>
      <point x="1235" y="917"/>
      <point x="887" y="925" type="curve" smooth="yes"/>
      <point x="626" y="932" type="line" smooth="yes"/>
      <point x="514" y="935"/>
      <point x="384" y="919"/>
      <point x="384" y="809" type="curve" smooth="yes"/>
      <point x="384" y="735"/>
      <point x="445" y="686"/>
    </contour>
  </outline>
</glyph>
<glyph name="at" format="1">
  <advance width="2241"/>
  <unicode hex="0040"/>
  <outline>
    <contour>
      <point x="896" y="-362" type="curve" smooth="yes"/>
      <point x="1159" y="-362"/>
      <point x="1398" y="-330"/>
      <point x="1598" y="-256" type="curve" smooth="yes"/>
      <point x="1683" y="-224"/>
      <point x="1839" y="-189"/>
      <point x="1839" y="-75" type="curve" smooth="yes"/>
      <point x="1839" y="4"/>
      <point x="1794" y="35"/>
      <point x="1733" y="7" type="curve" smooth="yes"/>
      <point x="1537" y="-83"/>
      <point x="1290" y="-128"/>
      <point x="991.999" y="-128" type="curve" smooth="yes"/>
      <point x="668" y="-128"/>
      <point x="400" y="-51"/>
      <point x="400" y="261" type="curve" smooth="yes"/>
      <point x="400" y="669"/>
      <point x="737" y="1376"/>
      <point x="1344" y="1376" type="curve" smooth="yes"/>
      <point x="1696" y="1376"/>
      <point x="1888" y="1190"/>
      <point x="1888" y="832" type="curve" smooth="yes"/>
      <point x="1888" y="628"/>
      <point x="1784" y="289"/>
      <point x="1580" y="289" type="curve" smooth="yes"/>
      <point x="1555" y="289"/>
      <point x="1548" y="313"/>
      <point x="1548" y="340" type="curve" smooth="yes"/>
      <point x="1548" y="452"/>
      <point x="1706" y="754"/>
      <point x="1706" y="1018" type="curve" smooth="yes"/>
      <point x="1706" y="1209"/>
      <point x="1604" y="1179"/>
      <point x="1556" y="1179" type="curve"/>
      <point x="1557" y="1184"/>
      <point x="1557" y="1189"/>
      <point x="1557" y="1194" type="curve" smooth="yes"/>
      <point x="1557" y="1256"/>
      <point x="1341" y="1253"/>
      <point x="1202" y="1202" type="curve" smooth="yes"/>
      <point x="907" y="1094"/>
      <point x="620" y="776"/>
      <point x="620" y="378" type="curve" smooth="yes"/>
      <point x="620" y="170"/>
      <point x="746" y="32"/>
      <point x="950" y="32" type="curve" smooth="yes"/>
      <point x="1161" y="32"/>
      <point x="1290" y="196"/>
      <point x="1363" y="345" type="curve"/>
      <point x="1342" y="235"/>
      <point x="1330" y="54"/>
      <point x="1475" y="54" type="curve" smooth="yes"/>
      <point x="1767" y="54"/>
      <point x="2138" y="389"/>
      <point x="2138" y="870" type="curve" smooth="yes"/>
      <point x="2138" y="1333"/>
      <point x="1804" y="1568"/>
      <point x="1344" y="1568" type="curve" smooth="yes"/>
      <point x="743" y="1568"/>
      <point x="112" y="961"/>
      <point x="112" y="215" type="curve" smooth="yes"/>
      <point x="112" y="-208"/>
      <point x="461" y="-362"/>
    </contour>
    <contour>
      <point x="1027" y="227" type="curve" smooth="yes"/>
      <point x="871" y="227"/>
      <point x="886" y="395"/>
      <point x="916" y="512" type="curve" smooth="yes"/>
      <point x="1010" y="875"/>
      <point x="1229" y="1093"/>
      <point x="1486" y="1029" type="curve"/>
      <point x="1355" y="578" type="line" smooth="yes"/>
      <point x="1313" y="434"/>
      <point x="1206" y="227"/>
    </contour>
  </outline>
</glyph>
<glyph name="D" format="1">
  <advance width="1574"/>
  <unicode hex="0044"/>
  <outline>
    <contour>
      <point x="547" y="-139" type="curve" smooth="yes"/>
      <point x="981" y="-139"/>
      <point x="1583" y="240"/>
      <point x="1583" y="1038" type="curve" smooth="yes"/>
      <point x="1583" y="1538"/>
      <point x="1142" y="1796"/>
      <point x="594" y="1806" type="curve" smooth="yes"/>
      <point x="322" y="1811"/>
      <point x="136" y="1715"/>
      <point x="-11" y="1540" type="curve" smooth="yes"/>
      <point x="-27" y="1521"/>
      <point x="-101" y="1392"/>
      <point x="-101" y="1299" type="curve" smooth="yes"/>
      <point x="-101" y="1257"/>
      <point x="-80" y="1204"/>
      <point x="-26" y="1204" type="curve" smooth="yes"/>
      <point x="38" y="1204"/>
      <point x="113" y="1345"/>
      <point x="165" y="1400" type="curve" smooth="yes"/>
      <point x="297" y="1540"/>
      <point x="472" y="1580"/>
      <point x="605" y="1577" type="curve" smooth="yes"/>
      <point x="1002" y="1567"/>
      <point x="1339" y="1346"/>
      <point x="1339" y="1019" type="curve" smooth="yes"/>
      <point x="1339" y="586"/>
      <point x="1014" y="49"/>
      <point x="515" y="49" type="curve" smooth="yes"/>
      <point x="426" y="49"/>
      <point x="419" y="90"/>
      <point x="419" y="179" type="curve" smooth="yes"/>
      <point x="419" y="545"/>
      <point x="500" y="1110"/>
      <point x="668" y="1336" type="curve"/>
      <point x="635" y="1391"/>
      <point x="595" y="1418"/>
      <point x="546" y="1418" type="curve" smooth="yes"/>
      <point x="507" y="1418"/>
      <point x="464" y="1402"/>
      <point x="417" y="1369" type="curve"/>
      <point x="214" y="1071"/>
      <point x="159" y="511"/>
      <point x="159" y="14" type="curve" smooth="yes"/>
      <point x="159" y="-28"/>
      <point x="167" y="-41"/>
      <point x="197" y="-55" type="curve" smooth="yes"/>
      <point x="290" y="-98"/>
      <point x="411" y="-139"/>
    </contour>
  </outline>
</glyph>
<glyph name="J" format="1">
  <advance width="1483"/>
  <unicode hex="004A"/>
  <outline>
    <contour>
      <point x="31" y="-669"/>
      <point x="129" y="-1111"/>
      <point x="438" y="-1111" type="curve" smooth="yes"/>
      <point x="908" y="-1111"/>
      <point x="1306" y="146"/>
      <point x="1407" y="1043" type="curve" smooth="yes"/>
      <point x="1408" y="1050"/>
      <point x="1408" y="1056"/>
      <point x="1408" y="1062" type="curve" smooth="yes"/>
      <point x="1408" y="1124"/>
      <point x="1372" y="1154"/>
      <point x="1312" y="1154" type="curve" smooth="yes"/>
      <point x="1208" y="1154"/>
      <point x="1175" y="1135"/>
      <point x="1153" y="1019" type="curve" smooth="yes"/>
      <point x="1083" y="630"/>
      <point x="728" y="-871"/>
      <point x="375" y="-871" type="curve" smooth="yes"/>
      <point x="158" y="-871"/>
      <point x="195" y="-478"/>
      <point x="195" y="-331" type="curve" smooth="yes"/>
      <point x="195" y="-277"/>
      <point x="154" y="-236"/>
      <point x="113" y="-236" type="curve" smooth="yes"/>
      <point x="74" y="-236"/>
      <point x="36" y="-274"/>
      <point x="36" y="-375" type="curve"/>
    </contour>
    <contour>
      <point x="1402" y="1504" type="curve" smooth="yes"/>
      <point x="1565" y="1504"/>
      <point x="1659" y="1582"/>
      <point x="1659" y="1699" type="curve" smooth="yes"/>
      <point x="1659" y="1807"/>
      <point x="1576" y="1863"/>
      <point x="1428" y="1863" type="curve" smooth="yes"/>
      <point x="1266" y="1863"/>
      <point x="1176" y="1786"/>
      <point x="1176" y="1669" type="curve" smooth="yes"/>
      <point x="1176" y="1560"/>
      <point x="1257" y="1504"/>
    </contour>
  </outline>
</glyph>
<glyph name="N" format="1">
  <advance width="1575"/>
  <unicode hex="004E"/>
  <outline>
    <contour>
      <point x="972" y="54"/>
      <point x="1092" y="-92"/>
      <point x="1361" y="-92" type="curve" smooth="yes"/>
      <point x="1484" y="-92"/>
      <point x="1653" y="-12"/>
      <point x="1754" y="86" type="curve" smooth="yes"/>
      <point x="1909" y="238"/>
      <point x="1760" y="357"/>
      <point x="1654" y="242" type="curve" smooth="yes"/>
      <point x="1489" y="63"/>
      <point x="1180" y="56"/>
      <point x="1240" y="298" type="curve" smooth="yes"/>
      <point x="1361" y="790"/>
      <point x="1642" y="1298"/>
      <point x="1642" y="1597" type="curve" smooth="yes"/>
      <point x="1642" y="1748"/>
      <point x="1546" y="1864"/>
      <point x="1369" y="1878" type="curve" smooth="yes"/>
      <point x="880" y="1918"/>
      <point x="626" y="1405"/>
      <point x="456" y="971" type="curve"/>
      <point x="524" y="1222"/>
      <point x="580" y="1485"/>
      <point x="580" y="1619" type="curve" smooth="yes"/>
      <point x="580" y="1782"/>
      <point x="448" y="1879"/>
      <point x="308" y="1867" type="curve" smooth="yes"/>
      <point x="75" y="1847"/>
      <point x="-96" y="1670"/>
      <point x="-189" y="1478" type="curve" smooth="yes"/>
      <point x="-259" y="1334"/>
      <point x="-44" y="1248"/>
      <point x="-31" y="1283" type="curve" smooth="yes"/>
      <point x="18" y="1416"/>
      <point x="181" y="1672"/>
      <point x="283" y="1671" type="curve" smooth="yes"/>
      <point x="353" y="1670"/>
      <point x="352" y="1532"/>
      <point x="352" y="1504" type="curve" smooth="yes"/>
      <point x="352" y="1159"/>
      <point x="43" y="359"/>
      <point x="-128" y="-48" type="curve" smooth="yes"/>
      <point x="-128" y="-49"/>
      <point x="-60" y="-122"/>
      <point x="32" y="-122" type="curve" smooth="yes"/>
      <point x="149" y="-122"/>
      <point x="181" y="4"/>
      <point x="209" y="65" type="curve" smooth="yes"/>
      <point x="560" y="826"/>
      <point x="873" y="1624"/>
      <point x="1266" y="1624" type="curve" smooth="yes"/>
      <point x="1346" y="1624"/>
      <point x="1378" y="1564"/>
      <point x="1378" y="1497" type="curve" smooth="yes"/>
      <point x="1378" y="1292"/>
      <point x="1096" y="755"/>
      <point x="1006" y="248" type="curve" smooth="yes"/>
    </contour>
  </outline>
</glyph>
<glyph name="O" format="1">
  <advance width="1853"/>
  <unicode hex="004F"/>
  <outline>
    <contour>
      <point x="882" y="-70" type="curve" smooth="yes"/>
      <point x="561" y="-70"/>
      <point x="411" y="278"/>
      <point x="411" y="536" type="curve" smooth="yes"/>
      <point x="411" y="965"/>
      <point x="649" y="1638"/>
      <point x="1157" y="1638" type="curve" smooth="yes"/>
      <point x="1460" y="1638"/>
      <point x="1575" y="1333"/>
      <point x="1575" y="1041" type="curve" smooth="yes"/>
      <point x="1575" y="644"/>
      <point x="1383" y="-70"/>
    </contour>
    <contour>
      <point x="863" y="-303" type="curve" smooth="yes"/>
      <point x="1513" y="-303"/>
      <point x="1845" y="438"/>
      <point x="1845" y="991.999" type="curve" smooth="yes"/>
      <point x="1845" y="1458"/>
      <point x="1606" y="1867"/>
      <point x="1143" y="1867" type="curve" smooth="yes"/>
      <point x="524" y="1867"/>
      <point x="150" y="1186"/>
      <point x="150" y="543" type="curve" smooth="yes"/>
      <point x="150" y="146"/>
      <point x="396" y="-303"/>
    </contour>
  </outline>
</glyph>
<glyph name="U" format="1">
  <advance width="1666.003"/>
  <unicode hex="0055"/>
  <outline>
    <contour>
      <point x="66" y="459" type="curve" smooth="yes"/>
      <point x="66" y="111"/>
      <point x="171" y="-160"/>
      <point x="539" y="-160" type="curve" smooth="yes"/>
      <point x="1138" y="-160"/>
      <point x="1399" y="779"/>
      <point x="1666" y="1693" type="curve" smooth="yes"/>
      <point x="1692" y="1781"/>
      <point x="1646" y="1828"/>
      <point x="1558" y="1828" type="curve" smooth="yes"/>
      <point x="1498" y="1828"/>
      <point x="1430" y="1775"/>
      <point x="1398" y="1668" type="curve" smooth="yes"/>
      <point x="1214" y="1053"/>
      <point x="1073" y="64"/>
      <point x="582" y="64" type="curve" smooth="yes"/>
      <point x="380" y="64"/>
      <point x="323" y="267"/>
      <point x="323" y="485" type="curve" smooth="yes"/>
      <point x="323" y="822"/>
      <point x="539" y="1346"/>
      <point x="683" y="1687" type="curve"/>
      <point x="683" y="1695" type="line" smooth="yes"/>
      <point x="688" y="1783"/>
      <point x="645" y="1790"/>
      <point x="574" y="1790" type="curve" smooth="yes"/>
      <point x="471" y="1790"/>
      <point x="450" y="1709"/>
      <point x="408" y="1630" type="curve" smooth="yes"/>
      <point x="244" y="1319"/>
      <point x="66" y="810"/>
    </contour>
    <contour>
      <point x="1278" y="1079" type="line"/>
      <point x="1187" y="650"/>
      <point x="1081" y="-39"/>
      <point x="1394" y="-79" type="curve" smooth="yes"/>
      <point x="1589" y="-104"/>
      <point x="1682" y="-32"/>
      <point x="1736" y="-10" type="curve"/>
      <point x="1759" y="4"/>
      <point x="1775" y="23"/>
      <point x="1783" y="43" type="curve" smooth="yes"/>
      <point x="1802" y="91"/>
      <point x="1780" y="145"/>
      <point x="1740" y="145" type="curve" smooth="yes"/>
      <point x="1680" y="145"/>
      <point x="1603" y="112"/>
      <point x="1544" y="112" type="curve" smooth="yes"/>
      <point x="1343" y="112"/>
      <point x="1384" y="611"/>
      <point x="1487" y="1104" type="curve"/>
    </contour>
  </outline>
</glyph>
<glyph name="Y" format="1">
  <advance width="1461"/>
  <unicode hex="0059"/>
  <outline>
    <contour>
      <point x="-86" y="780"/>
      <point x="-60" y="-30"/>
      <point x="599" y="-30" type="curve" smooth="yes"/>
      <point x="1198" y="-30"/>
      <point x="1324" y="639"/>
      <point x="1543" y="1553" type="curve" smooth="yes"/>
      <point x="1565" y="1641"/>
      <point x="1516" y="1688"/>
      <point x="1428" y="1688" type="curve" smooth="yes"/>
      <point x="1368" y="1688"/>
      <point x="1303" y="1635"/>
      <point x="1276" y="1528" type="curve" smooth="yes"/>
      <point x="1125" y="913"/>
      <point x="1121" y="194"/>
      <point x="630" y="194" type="curve" smooth="yes"/>
      <point x="181" y="194"/>
      <point x="256" y="909"/>
      <point x="561" y="1547" type="curve"/>
      <point x="560" y="1555" type="line" smooth="yes"/>
      <point x="560" y="1643"/>
      <point x="517" y="1650"/>
      <point x="446" y="1650" type="curve" smooth="yes"/>
      <point x="343" y="1650"/>
      <point x="329" y="1568"/>
      <point x="288" y="1490" type="curve" smooth="yes"/>
    </contour>
    <contour>
      <point x="738" y="-473"/>
      <point x="550" y="-795"/>
      <point x="144" y="-625" type="curve" smooth="yes"/>
      <point x="105" y="-609"/>
      <point x="47" y="-679"/>
      <point x="43" y="-727" type="curve" smooth="yes"/>
      <point x="41" y="-747"/>
      <point x="48" y="-766"/>
      <point x="67" y="-780" type="curve"/>
      <point x="754" y="-1088"/>
      <point x="979" y="-570"/>
      <point x="1213" y="309" type="curve" smooth="yes"/>
      <point x="1543" y="1553" type="line"/>
      <point x="975" y="334" type="line"/>
    </contour>
  </outline>
</glyph>
<glyph name="bracketright" format="1">
  <advance width="927"/>
  <unicode hex="005D"/>
  <outline>
    <contour>
      <point x="108" y="-192" type="curve" smooth="yes"/>
      <point x="416" y="-192" type="line" smooth="yes"/>
      <point x="601" y="-192"/>
      <point x="672" y="-88"/>
      <point x="696" y="60" type="curve" smooth="yes"/>
      <point x="759" y="450"/>
      <point x="794" y="840"/>
      <point x="860" y="1218" type="curve" smooth="yes"/>
      <point x="879" y="1329"/>
      <point x="912" y="1416"/>
      <point x="912" y="1528" type="curve" smooth="yes"/>
      <point x="912" y="1631"/>
      <point x="842" y="1667"/>
      <point x="735" y="1667" type="curve" smooth="yes"/>
      <point x="389" y="1667" type="line" smooth="yes"/>
      <point x="323" y="1667"/>
      <point x="264" y="1607"/>
      <point x="264" y="1544" type="curve" smooth="yes"/>
      <point x="264" y="1490"/>
      <point x="315" y="1443"/>
      <point x="369" y="1443" type="curve" smooth="yes"/>
      <point x="629" y="1443" type="line"/>
      <point x="593" y="1217"/>
      <point x="557" y="978.999"/>
      <point x="522" y="745" type="curve" smooth="yes"/>
      <point x="488" y="518"/>
      <point x="416" y="257"/>
      <point x="416" y="32" type="curve"/>
      <point x="119" y="32" type="line" smooth="yes"/>
      <point x="61" y="32"/>
      <point x="0" y="-22"/>
      <point x="0" y="-80" type="curve" smooth="yes"/>
      <point x="0" y="-139"/>
      <point x="47" y="-192"/>
    </contour>
  </outline>
</glyph>
<glyph name="k" format="1">
  <advance width="1227"/>
  <unicode hex="006B"/>
  <outline>
    <contour>
      <point x="125" y="526" type="curve"/>
      <point x="369" y="584" type="line"/>
      <point x="766" y="978.999"/>
      <point x="1054" y="1445"/>
      <point x="1039" y="1696" type="curve" smooth="yes"/>
      <point x="1032" y="1818"/>
      <point x="970.999" y="1920"/>
      <point x="842" y="1920" type="curve" smooth="yes"/>
      <point x="422" y="1920"/>
      <point x="165" y="1032"/>
    </contour>
    <contour>
      <point x="383" y="803" type="curve"/>
      <point x="427" y="1100"/>
      <point x="589" y="1680"/>
      <point x="774" y="1680" type="curve" smooth="yes"/>
      <point x="810" y="1680"/>
      <point x="824" y="1662"/>
      <point x="824" y="1620" type="curve" smooth="yes"/>
      <point x="824" y="1383"/>
      <point x="578" y="1027"/>
    </contour>
    <contour>
      <point x="879" y="-20" type="curve" smooth="yes"/>
      <point x="1063" y="-20"/>
      <point x="1305" y="156"/>
      <point x="1390" y="293" type="curve" smooth="yes"/>
      <point x="1436" y="367"/>
      <point x="1347" y="499"/>
      <point x="1292" y="419" type="curve" smooth="yes"/>
      <point x="1156" y="222"/>
      <point x="846" y="41"/>
      <point x="868" y="235" type="curve" smooth="yes"/>
      <point x="880" y="342"/>
      <point x="1200" y="512"/>
      <point x="1221" y="723" type="curve" smooth="yes"/>
      <point x="1234" y="854"/>
      <point x="1167" y="939"/>
      <point x="1037" y="941" type="curve" smooth="yes"/>
      <point x="801" y="944"/>
      <point x="594" y="768"/>
      <point x="333" y="284" type="curve"/>
      <point x="369" y="584" type="line"/>
      <point x="125" y="526" type="line"/>
      <point x="120" y="426"/>
      <point x="118" y="330"/>
      <point x="123" y="230" type="curve" smooth="yes"/>
      <point x="128" y="134"/>
      <point x="140" y="-11"/>
      <point x="224" y="-11" type="curve" smooth="yes"/>
      <point x="471" y="-11"/>
      <point x="715" y="751"/>
      <point x="929" y="718" type="curve" smooth="yes"/>
      <point x="961" y="713"/>
      <point x="963" y="688"/>
      <point x="961" y="672" type="curve" smooth="yes"/>
      <point x="950" y="560"/>
      <point x="638" y="392"/>
      <point x="642" y="184" type="curve" smooth="yes"/>
      <point x="645" y="22"/>
      <point x="737" y="-20"/>
    </contour>
  </outline>
</glyph>
<glyph name="m" format="1">
  <advance width="1447"/>
  <unicode hex="006D"/>
  <outline>
    <contour>
      <point x="1241" y="-7" type="curve" smooth="yes"/>
      <point x="1365" y="-5"/>
      <point x="1572" y="105"/>
      <point x="1696" y="281" type="curve" smooth="yes"/>
      <point x="1721" y="319"/>
      <point x="1608" y="429"/>
      <point x="1557" y="375" type="curve" smooth="yes"/>
      <point x="1455" y="272"/>
      <point x="1362" y="205"/>
      <point x="1317" y="192" type="curve"/>
      <point x="1265" y="181"/>
      <point x="1244" y="210"/>
      <point x="1252" y="275" type="curve" smooth="yes"/>
      <point x="1265" y="388"/>
      <point x="1349" y="730"/>
      <point x="1347" y="874" type="curve" smooth="yes"/>
      <point x="1346" y="919"/>
      <point x="1307" y="967"/>
      <point x="1230" y="963" type="curve"/>
      <point x="1196" y="963"/>
      <point x="1161" y="951"/>
      <point x="1132" y="921" type="curve" smooth="yes"/>
      <point x="1027" y="813"/>
      <point x="921" y="665"/>
      <point x="851" y="501" type="curve" smooth="yes"/>
      <point x="814" y="409" type="line"/>
      <point x="814" y="411"/>
      <point x="887" y="817"/>
      <point x="887" y="872" type="curve" smooth="yes"/>
      <point x="887" y="926"/>
      <point x="826" y="960"/>
      <point x="772" y="960" type="curve" smooth="yes"/>
      <point x="744" y="960"/>
      <point x="721" y="951"/>
      <point x="700" y="934" type="curve" smooth="yes"/>
      <point x="580" y="834"/>
      <point x="445" y="655"/>
      <point x="376" y="501" type="curve" smooth="yes"/>
      <point x="333" y="412" type="line"/>
      <point x="353" y="507.294"/>
      <point x="436" y="834"/>
      <point x="436" y="874" type="curve" smooth="yes"/>
      <point x="436" y="929"/>
      <point x="397" y="964"/>
      <point x="346" y="964" type="curve" smooth="yes"/>
      <point x="285" y="964"/>
      <point x="241" y="918"/>
      <point x="224" y="866" type="curve" smooth="yes"/>
      <point x="165" y="683"/>
      <point x="120" y="430"/>
      <point x="120" y="201" type="curve" smooth="yes"/>
      <point x="120" y="91"/>
      <point x="138" y="-2"/>
      <point x="241" y="-2" type="curve" smooth="yes"/>
      <point x="295" y="-2"/>
      <point x="343" y="20"/>
      <point x="361" y="65" type="curve" smooth="yes"/>
      <point x="450" y="286"/>
      <point x="572" y="484"/>
      <point x="700" y="677" type="curve"/>
      <point x="668" y="515"/>
      <point x="635" y="368"/>
      <point x="615" y="179" type="curve" smooth="yes"/>
      <point x="606" y="92"/>
      <point x="628" y="-2"/>
      <point x="706" y="-2" type="curve" smooth="yes"/>
      <point x="768" y="-2"/>
      <point x="825" y="15"/>
      <point x="841" y="65" type="curve" smooth="yes"/>
      <point x="908" y="277"/>
      <point x="1048" y="488"/>
      <point x="1149" y="677" type="curve"/>
      <point x="1128" y="573"/>
      <point x="1064" y="327"/>
      <point x="1056" y="211" type="curve" smooth="yes"/>
      <point x="1046" y="64"/>
      <point x="1096" y="-9"/>
    </contour>
  </outline>
</glyph>
<glyph name="n" format="1">
  <advance width="994"/>
  <unicode hex="006E"/>
  <outline>
    <contour>
      <point x="789" y="-12" type="curve" smooth="yes"/>
      <point x="885" y="-12"/>
      <point x="1120" y="97.9999"/>
      <point x="1244" y="276" type="curve" smooth="yes"/>
      <point x="1269" y="312"/>
      <point x="1156" y="422"/>
      <point x="1105" y="370" type="curve" smooth="yes"/>
      <point x="1003" y="265"/>
      <point x="910" y="198"/>
      <point x="865" y="187" type="curve" smooth="yes"/>
      <point x="813" y="174"/>
      <point x="792" y="203"/>
      <point x="800" y="270" type="curve" smooth="yes"/>
      <point x="813" y="381"/>
      <point x="897" y="723"/>
      <point x="895" y="869" type="curve" smooth="yes"/>
      <point x="894" y="912"/>
      <point x="855" y="960"/>
      <point x="778" y="960" type="curve" smooth="yes"/>
      <point x="657" y="960"/>
      <point x="505" y="739"/>
      <point x="336" y="438" type="curve"/>
      <point x="362" y="562"/>
      <point x="410" y="762"/>
      <point x="442" y="860" type="curve" smooth="yes"/>
      <point x="459" y="911"/>
      <point x="411" y="964"/>
      <point x="352" y="964" type="curve" smooth="yes"/>
      <point x="281" y="964"/>
      <point x="247" y="918"/>
      <point x="226" y="861" type="curve" smooth="yes"/>
      <point x="158" y="674"/>
      <point x="122" y="417"/>
      <point x="120" y="216" type="curve" smooth="yes"/>
      <point x="119" y="107"/>
      <point x="130" y="0"/>
      <point x="239" y="0" type="curve" smooth="yes"/>
      <point x="317" y="0"/>
      <point x="347" y="20"/>
      <point x="386" y="121" type="curve" smooth="yes"/>
      <point x="457" y="305"/>
      <point x="602" y="549"/>
      <point x="697" y="672" type="curve"/>
      <point x="676" y="566"/>
      <point x="612" y="320"/>
      <point x="604" y="206" type="curve" smooth="yes"/>
      <point x="594" y="57"/>
      <point x="644" y="-12"/>
    </contour>
  </outline>
</glyph>
<glyph name="t" format="1">
  <advance width="795"/>
  <unicode hex="0074"/>
  <outline>
    <contour>
      <point x="120" y="576" type="curve" smooth="yes"/>
      <point x="203" y="612"/>
      <point x="713" y="773"/>
      <point x="896" y="792" type="curve" smooth="yes"/>
      <point x="985.999" y="801"/>
      <point x="944" y="978.999"/>
      <point x="843" y="965" type="curve" smooth="yes"/>
      <point x="693" y="947"/>
      <point x="328" y="837"/>
      <point x="53" y="718" type="curve" smooth="yes"/>
      <point x="-19" y="688"/>
      <point x="23" y="533"/>
    </contour>
    <contour>
      <point x="438" y="827" type="curve"/>
      <point x="478" y="1086"/>
      <point x="602" y="1583"/>
      <point x="810" y="1582" type="curve"/>
      <point x="829" y="1581"/>
      <point x="837" y="1563"/>
      <point x="833" y="1540" type="curve"/>
      <point x="803" y="1276"/>
      <point x="617" y="1022"/>
    </contour>
    <contour>
      <point x="468" y="-9" type="curve" smooth="yes"/>
      <point x="633" y="-9"/>
      <point x="782" y="62"/>
      <point x="944" y="243" type="curve" smooth="yes"/>
      <point x="1043" y="352"/>
      <point x="900" y="450"/>
      <point x="841" y="383" type="curve" smooth="yes"/>
      <point x="740" y="269"/>
      <point x="622" y="177"/>
      <point x="517" y="177" type="curve" smooth="yes"/>
      <point x="364" y="177"/>
      <point x="391" y="476"/>
      <point x="418" y="672" type="curve"/>
      <point x="700" y="882"/>
      <point x="970.999" y="1258"/>
      <point x="998.999" y="1626" type="curve" smooth="yes"/>
      <point x="1008" y="1732"/>
      <point x="964" y="1822"/>
      <point x="847" y="1824" type="curve" smooth="yes"/>
      <point x="471" y="1828"/>
      <point x="239" y="1073"/>
      <point x="192" y="635" type="curve" smooth="yes"/>
      <point x="158" y="311"/>
      <point x="218" y="-9"/>
    </contour>
  </outline>
</glyph>
<glyph name="section" format="1">
  <advance width="1440"/>
  <unicode hex="00A7"/>
  <outline>
    <contour>
      <point x="955" y="514" type="curve"/>
      <point x="926" y="533"/>
      <point x="897" y="552"/>
      <point x="866" y="568" type="curve" smooth="yes"/>
      <point x="790" y="608"/>
      <point x="555" y="676"/>
      <point x="555" y="787" type="curve" smooth="yes"/>
      <point x="555" y="841"/>
      <point x="585" y="879"/>
      <point x="619" y="908" type="curve"/>
      <point x="663" y="883"/>
      <point x="708" y="858"/>
      <point x="754" y="836" type="curve" smooth="yes"/>
      <point x="835" y="796"/>
      <point x="1006" y="733"/>
      <point x="1006" y="625" type="curve" smooth="yes"/>
      <point x="1006" y="576"/>
      <point x="981.999" y="540"/>
    </contour>
    <contour>
      <point x="681" y="-117" type="curve" smooth="yes"/>
      <point x="905" y="-117"/>
      <point x="1144" y="-21"/>
      <point x="1144" y="200" type="curve" smooth="yes"/>
      <point x="1144" y="274"/>
      <point x="1123" y="330"/>
      <point x="1093" y="376" type="curve"/>
      <point x="1166" y="431"/>
      <point x="1228" y="507"/>
      <point x="1228" y="625" type="curve" smooth="yes"/>
      <point x="1228" y="812"/>
      <point x="1062" y="903"/>
      <point x="938" y="970.999" type="curve" smooth="yes"/>
      <point x="866" y="1011"/>
      <point x="647" y="1081"/>
      <point x="647" y="1185" type="curve" smooth="yes"/>
      <point x="647" y="1270"/>
      <point x="739" y="1312"/>
      <point x="831" y="1312" type="curve" smooth="yes"/>
      <point x="946" y="1312"/>
      <point x="1068" y="1261"/>
      <point x="1068" y="1148" type="curve" smooth="yes"/>
      <point x="1068" y="1126"/>
      <point x="1058" y="1102"/>
      <point x="1058" y="1080" type="curve" smooth="yes"/>
      <point x="1058" y="1031"/>
      <point x="1097" y="998.999"/>
      <point x="1144" y="998.999" type="curve" smooth="yes"/>
      <point x="1221" y="998.999"/>
      <point x="1256" y="1070"/>
      <point x="1256" y="1151" type="curve" smooth="yes"/>
      <point x="1256" y="1355"/>
      <point x="1064" y="1491"/>
      <point x="860" y="1491" type="curve" smooth="yes"/>
      <point x="638" y="1491"/>
      <point x="396" y="1407"/>
      <point x="396" y="1197" type="curve" smooth="yes"/>
      <point x="396" y="1113"/>
      <point x="437" y="1057"/>
      <point x="481" y="1011" type="curve"/>
      <point x="402" y="962"/>
      <point x="332" y="891"/>
      <point x="332" y="782" type="curve" smooth="yes"/>
      <point x="332" y="651"/>
      <point x="424" y="579"/>
      <point x="509" y="528" type="curve" smooth="yes"/>
      <point x="624" y="459"/>
      <point x="892" y="388"/>
      <point x="892" y="210" type="curve" smooth="yes"/>
      <point x="892" y="110"/>
      <point x="788" y="62"/>
      <point x="687" y="62" type="curve" smooth="yes"/>
      <point x="564" y="62"/>
      <point x="435" y="103"/>
      <point x="435" y="224" type="curve" smooth="yes"/>
      <point x="435" y="276"/>
      <point x="453" y="315"/>
      <point x="453" y="357" type="curve" smooth="yes"/>
      <point x="453" y="396"/>
      <point x="411" y="408"/>
      <point x="370" y="408" type="curve" smooth="yes"/>
      <point x="281" y="408"/>
      <point x="224" y="317"/>
      <point x="224" y="223" type="curve" smooth="yes"/>
      <point x="224" y="-12"/>
      <point x="444" y="-117"/>
    </contour>
  </outline>
</glyph>
<glyph name="dieresis" format="1">
  <advance width="1025"/>
  <unicode hex="00A8"/>
  <outline>
    <contour>
      <point x="269" y="1132" type="curve" smooth="yes"/>
      <point x="373" y="1132"/>
      <point x="431" y="1205"/>
      <point x="431" y="1306" type="curve" smooth="yes"/>
      <point x="431" y="1401"/>
      <point x="380" y="1454"/>
      <point x="286" y="1454" type="curve" smooth="yes"/>
      <point x="183" y="1454"/>
      <point x="128" y="1382"/>
      <point x="128" y="1280" type="curve" smooth="yes"/>
      <point x="128" y="1182"/>
      <point x="176" y="1132"/>
    </contour>
    <contour>
      <point x="736" y="1132" type="curve" smooth="yes"/>
      <point x="841" y="1132"/>
      <point x="898" y="1204"/>
      <point x="898" y="1306" type="curve" smooth="yes"/>
      <point x="898" y="1401"/>
      <point x="848" y="1454"/>
      <point x="753" y="1454" type="curve" smooth="yes"/>
      <point x="650" y="1454"/>
      <point x="595" y="1382"/>
      <point x="595" y="1280" type="curve" smooth="yes"/>
      <point x="595" y="1183"/>
      <point x="645" y="1132"/>
    </contour>
  </outline>
</glyph>
<glyph name="Ccedilla" format="1">
  <advance width="1648"/>
  <unicode hex="00C7"/>
  <outline>
    <contour>
      <point x="775" y="-275" type="curve" smooth="yes"/>
      <point x="1153" y="-275"/>
      <point x="1593" y="-14"/>
      <point x="1707" y="331" type="curve" smooth="yes"/>
      <point x="1709" y="337"/>
      <point x="1710" y="342"/>
      <point x="1710" y="347" type="curve" smooth="yes"/>
      <point x="1710" y="383"/>
      <point x="1668" y="405"/>
      <point x="1639" y="405" type="curve" smooth="yes"/>
      <point x="1626" y="405"/>
      <point x="1614" y="402"/>
      <point x="1604" y="393" type="curve"/>
      <point x="1391" y="185"/>
      <point x="1191" y="-51"/>
      <point x="838" y="-51" type="curve" smooth="yes"/>
      <point x="588" y="-51"/>
      <point x="429" y="142"/>
      <point x="432" y="502" type="curve" smooth="yes"/>
      <point x="436" y="952"/>
      <point x="739" y="1618"/>
      <point x="1176" y="1618" type="curve" smooth="yes"/>
      <point x="1320" y="1618"/>
      <point x="1400" y="1536"/>
      <point x="1400" y="1394" type="curve" smooth="yes"/>
      <point x="1400" y="1184"/>
      <point x="1238" y="996.999"/>
      <point x="1033" y="996.999" type="curve" smooth="yes"/>
      <point x="932" y="996.999"/>
      <point x="863" y="985.999"/>
      <point x="863" y="907" type="curve" smooth="yes"/>
      <point x="863" y="795"/>
      <point x="923" y="786"/>
      <point x="1049" y="786" type="curve" smooth="yes"/>
      <point x="1356" y="786"/>
      <point x="1624" y="1099"/>
      <point x="1624" y="1413" type="curve" smooth="yes"/>
      <point x="1624" y="1667"/>
      <point x="1459" y="1842"/>
      <point x="1211" y="1842" type="curve" smooth="yes"/>
      <point x="603" y="1842"/>
      <point x="155" y="1136"/>
      <point x="144" y="482" type="curve" smooth="yes"/>
      <point x="135" y="-61"/>
      <point x="458" y="-275"/>
    </contour>
    <contour>
      <point x="379" y="-779" type="curve" smooth="yes"/>
      <point x="470" y="-779"/>
      <point x="531" y="-710"/>
      <point x="542" y="-628" type="curve" smooth="yes"/>
      <point x="561" y="-490"/>
      <point x="592" y="-367"/>
      <point x="592" y="-207" type="curve" smooth="yes"/>
      <point x="592" y="-182"/>
      <point x="571" y="-172"/>
      <point x="546" y="-172" type="curve" smooth="yes"/>
      <point x="516" y="-172"/>
      <point x="493" y="-201"/>
      <point x="482" y="-222" type="curve" smooth="yes"/>
      <point x="455" y="-273"/>
      <point x="425" y="-318"/>
      <point x="399" y="-359" type="curve" smooth="yes"/>
      <point x="346" y="-443"/>
      <point x="268" y="-540"/>
      <point x="268" y="-660" type="curve" smooth="yes"/>
      <point x="268" y="-732"/>
      <point x="309" y="-779"/>
    </contour>
  </outline>
</glyph>
<glyph name="Edieresis" format="1">
  <advance width="1618"/>
  <unicode hex="00CB"/>
  <outline>
    <contour>
      <point x="740" y="-303" type="curve" smooth="yes"/>
      <point x="1158" y="-303"/>
      <point x="1527" y="-66"/>
      <point x="1780" y="250" type="curve" smooth="yes"/>
      <point x="1861" y="351"/>
      <point x="1740" y="534"/>
      <point x="1629" y="401" type="curve" smooth="yes"/>
      <point x="1399" y="125"/>
      <point x="1102" y="-62"/>
      <point x="749" y="-62" type="curve" smooth="yes"/>
      <point x="545" y="-62"/>
      <point x="433" y="37"/>
      <point x="418" y="239" type="curve" smooth="yes"/>
      <point x="399" y="502"/>
      <point x="618" y="694"/>
      <point x="1047" y="694" type="curve" smooth="yes"/>
      <point x="1239" y="694"/>
      <point x="1258" y="914"/>
      <point x="1117" y="945" type="curve" smooth="yes"/>
      <point x="941" y="983.999"/>
      <point x="593" y="1077"/>
      <point x="616" y="1359" type="curve" smooth="yes"/>
      <point x="648" y="1751"/>
      <point x="1313" y="1680"/>
      <point x="1533" y="1501" type="curve"/>
      <point x="1453" y="1313" type="line" smooth="yes"/>
      <point x="1372" y="1124"/>
      <point x="1780" y="1109"/>
      <point x="1761" y="1438" type="curve" smooth="yes"/>
      <point x="1743" y="1743"/>
      <point x="1363" y="1867"/>
      <point x="1038" y="1867" type="curve" smooth="yes"/>
      <point x="692" y="1867"/>
      <point x="362" y="1742"/>
      <point x="332" y="1385" type="curve" smooth="yes"/>
      <point x="308" y="1105"/>
      <point x="503" y="905"/>
      <point x="874" y="855" type="curve"/>
      <point x="487" y="845"/>
      <point x="119" y="622"/>
      <point x="119" y="233" type="curve" smooth="yes"/>
      <point x="119" y="-121"/>
      <point x="392" y="-303"/>
    </contour>
    <contour>
      <point x="759" y="1928" type="curve" smooth="yes"/>
      <point x="863" y="1928"/>
      <point x="921" y="2001"/>
      <point x="921" y="2102" type="curve" smooth="yes"/>
      <point x="921" y="2197"/>
      <point x="870" y="2250"/>
      <point x="776" y="2250" type="curve" smooth="yes"/>
      <point x="673" y="2250"/>
      <point x="618" y="2178"/>
      <point x="618" y="2076" type="curve" smooth="yes"/>
      <point x="618" y="1978"/>
      <point x="666" y="1928"/>
    </contour>
    <contour>
      <point x="1226" y="1928" type="curve" smooth="yes"/>
      <point x="1331" y="1928"/>
      <point x="1388" y="2000"/>
      <point x="1388" y="2102" type="curve" smooth="yes"/>
      <point x="1388" y="2197"/>
      <point x="1338" y="2250"/>
      <point x="1243" y="2250" type="curve" smooth="yes"/>
      <point x="1140" y="2250"/>
      <point x="1085" y="2178"/>
      <point x="1085" y="2076" type="curve" smooth="yes"/>
      <point x="1085" y="1979"/>
      <point x="1135" y="1928"/>
    </contour>
  </outline>
</glyph>
<glyph name="Oacute" format="1">
  <advance width="1853"/>
  <unicode hex="00D3"/>
  <outline>
    <contour>
      <point x="882" y="-70" type="curve" smooth="yes"/>
      <point x="561" y="-70"/>
      <point x="411" y="278"/>
      <point x="411" y="536" type="curve" smooth="yes"/>
      <point x="411" y="965"/>
      <point x="649" y="1638"/>
      <point x="1157" y="1638" type="curve" smooth="yes"/>
      <point x="1460" y="1638"/>
      <point x="1575" y="1333"/>
      <point x="1575" y="1041" type="curve" smooth="yes"/>
      <point x="1575" y="644"/>
      <point x="1383" y="-70"/>
    </contour>
    <contour>
      <point x="863" y="-303" type="curve" smooth="yes"/>
      <point x="1513" y="-303"/>
      <point x="1845" y="438"/>
      <point x="1845" y="991.999" type="curve" smooth="yes"/>
      <point x="1845" y="1458"/>
      <point x="1606" y="1867"/>
      <point x="1143" y="1867" type="curve" smooth="yes"/>
      <point x="524" y="1867"/>
      <point x="150" y="1186"/>
      <point x="150" y="543" type="curve" smooth="yes"/>
      <point x="150" y="146"/>
      <point x="396" y="-303"/>
    </contour>
    <contour>
      <point x="1173" y="2039" type="curve" smooth="yes"/>
      <point x="1523" y="2371" type="line" smooth="yes"/>
      <point x="1656" y="2497"/>
      <point x="1428" y="2667"/>
      <point x="1342" y="2521" type="curve" smooth="yes"/>
      <point x="1089" y="2111" type="line" smooth="yes"/>
      <point x="1035" y="2026"/>
      <point x="1111" y="1980"/>
    </contour>
  </outline>
</glyph>
<glyph name="Udieresis" format="1">
  <advance width="1592"/>
  <unicode hex="00DC"/>
  <outline>
    <contour>
      <point x="700" y="-160" type="curve" smooth="yes"/>
      <point x="901" y="-160"/>
      <point x="1048" y="-65"/>
      <point x="1160" y="48" type="curve" smooth="yes"/>
      <point x="1484" y="373"/>
      <point x="1616" y="940"/>
      <point x="1616" y="1593" type="curve" smooth="yes"/>
      <point x="1616" y="1681"/>
      <point x="1589" y="1728"/>
      <point x="1503" y="1728" type="curve" smooth="yes"/>
      <point x="1390" y="1728"/>
      <point x="1334" y="1677"/>
      <point x="1328" y="1568" type="curve" smooth="yes"/>
      <point x="1304" y="1124"/>
      <point x="1212" y="64"/>
      <point x="731" y="64" type="curve" smooth="yes"/>
      <point x="549" y="64"/>
      <point x="442" y="176"/>
      <point x="442" y="578" type="curve" smooth="yes"/>
      <point x="442" y="948"/>
      <point x="603" y="1225"/>
      <point x="657" y="1529" type="curve"/>
      <point x="657" y="1537" type="line" smooth="yes"/>
      <point x="657" y="1625"/>
      <point x="588" y="1632"/>
      <point x="500" y="1632" type="curve" smooth="yes"/>
      <point x="399" y="1632"/>
      <point x="375" y="1556"/>
      <point x="346" y="1472" type="curve" smooth="yes"/>
      <point x="258" y="1222"/>
      <point x="176" y="923"/>
      <point x="176" y="588" type="curve" smooth="yes"/>
      <point x="176" y="183"/>
      <point x="295" y="-160"/>
    </contour>
    <contour>
      <point x="1349" y="1928" type="curve" smooth="yes"/>
      <point x="1453" y="1928"/>
      <point x="1511" y="2001"/>
      <point x="1511" y="2102" type="curve" smooth="yes"/>
      <point x="1511" y="2197"/>
      <point x="1460" y="2250"/>
      <point x="1366" y="2250" type="curve" smooth="yes"/>
      <point x="1263" y="2250"/>
      <point x="1208" y="2178"/>
      <point x="1208" y="2076" type="curve" smooth="yes"/>
      <point x="1208" y="1978"/>
      <point x="1256" y="1928"/>
    </contour>
    <contour>
      <point x="1816" y="1928" type="curve" smooth="yes"/>
      <point x="1921" y="1928"/>
      <point x="1978" y="2000"/>
      <point x="1978" y="2102" type="curve" smooth="yes"/>
      <point x="1978" y="2197"/>
      <point x="1928" y="2250"/>
      <point x="1833" y="2250" type="curve" smooth="yes"/>
      <point x="1730" y="2250"/>
      <point x="1675" y="2178"/>
      <point x="1675" y="2076" type="curve" smooth="yes"/>
      <point x="1675" y="1979"/>
      <point x="1725" y="1928"/>
    </contour>
  </outline>
</glyph>
<glyph name="Yacute" format="1">
  <advance width="1461"/>
  <unicode hex="00DD"/>
  <outline>
    <contour>
      <point x="413" y="-363" type="curve" smooth="yes"/>
      <point x="531" y="-363"/>
      <point x="601" y="-322"/>
      <point x="667" y="-260" type="curve" smooth="yes"/>
      <point x="783" y="-152"/>
      <point x="892" y="30"/>
      <point x="995.999" y="233" type="curve" smooth="yes"/>
      <point x="1690" y="1581" type="line" smooth="yes"/>
      <point x="1778" y="1754"/>
      <point x="1504" y="1807"/>
      <point x="1461" y="1717" type="curve" smooth="yes"/>
      <point x="1023" y="816" type="line"/>
      <point x="827" y="1160" type="line" smooth="yes"/>
      <point x="706" y="1371"/>
      <point x="589" y="1673"/>
      <point x="278" y="1673" type="curve" smooth="yes"/>
      <point x="-157" y="1665"/>
      <point x="-166" y="1321"/>
      <point x="-22" y="1151" type="curve" smooth="yes"/>
      <point x="46" y="1071"/>
      <point x="196" y="1122"/>
      <point x="99.9999" y="1252" type="curve" smooth="yes"/>
      <point x="43" y="1330"/>
      <point x="110" y="1405"/>
      <point x="180" y="1427" type="curve" smooth="yes"/>
      <point x="403" y="1497"/>
      <point x="518" y="1220"/>
      <point x="873" y="597" type="curve"/>
      <point x="777" y="363"/>
      <point x="518" y="-199"/>
      <point x="389" y="-199" type="curve" smooth="yes"/>
      <point x="317" y="-199"/>
      <point x="293" y="-68"/>
      <point x="223" y="-68" type="curve" smooth="yes"/>
      <point x="164" y="-68"/>
      <point x="116" y="-107"/>
      <point x="116" y="-166" type="curve" smooth="yes"/>
      <point x="116" y="-266"/>
      <point x="293" y="-363"/>
    </contour>
    <contour>
      <point x="1573" y="2039" type="curve" smooth="yes"/>
      <point x="1923" y="2371" type="line" smooth="yes"/>
      <point x="2056" y="2497"/>
      <point x="1828" y="2667"/>
      <point x="1742" y="2521" type="curve" smooth="yes"/>
      <point x="1489" y="2111" type="line" smooth="yes"/>
      <point x="1435" y="2026"/>
      <point x="1511" y="1980"/>
    </contour>
  </outline>
</glyph>
<glyph name="Ydieresis" format="1">
  <advance width="1461"/>
  <unicode hex="0178"/>
  <outline>
    <contour>
      <point x="413" y="-363" type="curve" smooth="yes"/>
      <point x="531" y="-363"/>
      <point x="601" y="-322"/>
      <point x="667" y="-260" type="curve" smooth="yes"/>
      <point x="783" y="-152"/>
      <point x="892" y="30"/>
      <point x="995.999" y="233" type="curve" smooth="yes"/>
      <point x="1690" y="1581" type="line" smooth="yes"/>
      <point x="1778" y="1754"/>
      <point x="1504" y="1807"/>
      <point x="1461" y="1717" type="curve" smooth="yes"/>
      <point x="1023" y="816" type="line"/>
      <point x="827" y="1160" type="line" smooth="yes"/>
      <point x="706" y="1371"/>
      <point x="589" y="1673"/>
      <point x="278" y="1673" type="curve" smooth="yes"/>
      <point x="-157" y="1665"/>
      <point x="-166" y="1321"/>
      <point x="-22" y="1151" type="curve" smooth="yes"/>
      <point x="46" y="1071"/>
      <point x="196" y="1122"/>
      <point x="99.9999" y="1252" type="curve" smooth="yes"/>
      <point x="43" y="1330"/>
      <point x="110" y="1405"/>
      <point x="180" y="1427" type="curve" smooth="yes"/>
      <point x="403" y="1497"/>
      <point x="518" y="1220"/>
      <point x="873" y="597" type="curve"/>
      <point x="777" y="363"/>
      <point x="518" y="-199"/>
      <point x="389" y="-199" type="curve" smooth="yes"/>
      <point x="317" y="-199"/>
      <point x="293" y="-68"/>
      <point x="223" y="-68" type="curve" smooth="yes"/>
      <point x="164" y="-68"/>
      <point x="116" y="-107"/>
      <point x="116" y="-166" type="curve" smooth="yes"/>
      <point x="116" y="-266"/>
      <point x="293" y="-363"/>
    </contour>
    <contour>
      <point x="428" y="2043" type="curve" smooth="yes"/>
      <point x="532" y="2043"/>
      <point x="590" y="2116"/>
      <point x="590" y="2217" type="curve" smooth="yes"/>
      <point x="590" y="2312"/>
      <point x="539" y="2365"/>
      <point x="445" y="2365" type="curve" smooth="yes"/>
      <point x="342" y="2365"/>
      <point x="287" y="2293"/>
      <point x="287" y="2191" type="curve" smooth="yes"/>
      <point x="287" y="2093"/>
      <point x="335" y="2043"/>
    </contour>
    <contour>
      <point x="895" y="2043" type="curve" smooth="yes"/>
      <point x="999.999" y="2043"/>
      <point x="1057" y="2115"/>
      <point x="1057" y="2217" type="curve" smooth="yes"/>
      <point x="1057" y="2312"/>
      <point x="1007" y="2365"/>
      <point x="912" y="2365" type="curve" smooth="yes"/>
      <point x="809" y="2365"/>
      <point x="754" y="2293"/>
      <point x="754" y="2191" type="curve" smooth="yes"/>
      <point x="754" y="2094"/>
      <point x="804" y="2043"/>
    </contour>
  </outline>
</glyph>
<glyph name="quotedblbase" format="1">
  <advance width="1025"/>
  <unicode hex="201E"/>
  <outline>
    <contour>
      <point x="368" y="-191" type="curve" smooth="yes"/>
      <point x="470" y="-191"/>
      <point x="514" y="-75"/>
      <point x="558" y="-8" type="curve" smooth="yes"/>
      <point x="580" y="26"/>
      <point x="582" y="26"/>
      <point x="604" y="60" type="curve" smooth="yes"/>
      <point x="631" y="102"/>
      <point x="671" y="143"/>
      <point x="671" y="205" type="curve" smooth="yes"/>
      <point x="671" y="282"/>
      <point x="592" y="321"/>
      <point x="514" y="321" type="curve" smooth="yes"/>
      <point x="445" y="321"/>
      <point x="392" y="291"/>
      <point x="377" y="237" type="curve" smooth="yes"/>
      <point x="347" y="128"/>
      <point x="287" y="9.99999"/>
      <point x="287" y="-109" type="curve" smooth="yes"/>
      <point x="287" y="-158"/>
      <point x="321" y="-191"/>
    </contour>
    <contour>
      <point x="759" y="-191" type="curve" smooth="yes"/>
      <point x="861" y="-191"/>
      <point x="906" y="-75"/>
      <point x="950" y="-8" type="curve" smooth="yes"/>
      <point x="993.999" y="60" type="line" smooth="yes"/>
      <point x="1021" y="102"/>
      <point x="1062" y="143"/>
      <point x="1062" y="205" type="curve" smooth="yes"/>
      <point x="1062" y="282"/>
      <point x="982.999" y="321"/>
      <point x="905" y="321" type="curve" smooth="yes"/>
      <point x="836" y="321"/>
      <point x="783" y="291"/>
      <point x="768" y="237" type="curve" smooth="yes"/>
      <point x="738" y="128"/>
      <point x="678" y="9.99999"/>
      <point x="678" y="-109" type="curve" smooth="yes"/>
      <point x="678" y="-158"/>
      <point x="712" y="-191"/>
    </contour>
  </outline>
</glyph>
<glyph name="Th" format="1">
  <advance width="2410"/>
  <outline>
    <contour>
      <point x="1539" y="0" type="curve" smooth="yes"/>
      <point x="1627" y="-17"/>
      <point x="1660" y="39"/>
      <point x="1693" y="112" type="curve" smooth="yes"/>
      <point x="1783" y="313"/>
      <point x="1896" y="455"/>
      <point x="1981" y="561" type="curve" smooth="yes"/>
      <point x="2103" y="713"/>
      <point x="1944" y="429"/>
      <point x="1928" y="185" type="curve" smooth="yes"/>
      <point x="1918" y="34"/>
      <point x="2012" y="-20"/>
      <point x="2147" y="0" type="curve" smooth="yes"/>
      <point x="2315" y="25"/>
      <point x="2462" y="123"/>
      <point x="2563" y="196" type="curve" smooth="yes"/>
      <point x="2605" y="228"/>
      <point x="2621" y="271"/>
      <point x="2621" y="311" type="curve" smooth="yes"/>
      <point x="2621" y="367"/>
      <point x="2591" y="415"/>
      <point x="2555" y="415" type="curve" smooth="yes"/>
      <point x="2547" y="415"/>
      <point x="2539" y="412"/>
      <point x="2531" y="407" type="curve"/>
      <point x="2505" y="383"/>
      <point x="2271" y="194"/>
      <point x="2194" y="194" type="curve" smooth="yes"/>
      <point x="2179" y="194"/>
      <point x="2170" y="200"/>
      <point x="2170" y="213" type="curve" smooth="yes"/>
      <point x="2170" y="347"/>
      <point x="2307" y="606"/>
      <point x="2375" y="807" type="curve" smooth="yes"/>
      <point x="2405" y="897"/>
      <point x="2340" y="966"/>
      <point x="2246" y="966" type="curve" smooth="yes"/>
      <point x="2157" y="966"/>
      <point x="2019" y="857"/>
      <point x="1713" y="480" type="curve"/>
      <point x="1791" y="1020"/>
      <point x="1919" y="1530"/>
      <point x="2077" y="1653" type="curve"/>
      <point x="1851" y="1672" type="line"/>
      <point x="1626" y="1334"/>
      <point x="1502" y="725"/>
      <point x="1470" y="333" type="curve" smooth="yes"/>
      <point x="1461" y="236"/>
      <point x="1445" y="18"/>
    </contour>
    <contour>
      <point x="816" y="-74" type="curve" smooth="yes"/>
      <point x="908" y="-74"/>
      <point x="963" y="-24"/>
      <point x="978.999" y="75" type="curve" smooth="yes"/>
      <point x="998.999" y="199"/>
      <point x="1084" y="777"/>
      <point x="1410" y="1644" type="curve"/>
      <point x="1990" y="1614"/>
      <point x="2138" y="1606"/>
      <point x="2348" y="1650" type="curve" smooth="yes"/>
      <point x="2415" y="1664"/>
      <point x="2531" y="1884"/>
      <point x="2299" y="1852" type="curve" smooth="yes"/>
      <point x="1429" y="1732"/>
      <point x="231" y="2254"/>
      <point x="62" y="1450" type="curve" smooth="yes"/>
      <point x="32" y="1308"/>
      <point x="258" y="1326"/>
      <point x="314" y="1387" type="curve" smooth="yes"/>
      <point x="522" y="1614"/>
      <point x="478" y="1740"/>
      <point x="1178" y="1656" type="curve"/>
      <point x="655" y="402"/>
      <point x="666" y="160"/>
      <point x="669" y="60" type="curve" smooth="yes"/>
      <point x="671" y="-18"/>
      <point x="727" y="-74"/>
    </contour>
  </outline>
</glyph>
<glyph name="b.fina" format="1">
  <advance width="1344"/>
  <outline>
    <contour>
      <point x="326" y="865" type="curve"/>
      <point x="350" y="993.999"/>
      <point x="515" y="1728"/>
      <point x="615" y="1728" type="curve" smooth="yes"/>
      <point x="651" y="1728"/>
      <point x="666" y="1683"/>
      <point x="666" y="1648" type="curve" smooth="yes"/>
      <point x="666" y="1318"/>
      <point x="451" y="1101"/>
    </contour>
    <contour>
      <point x="452" y="192" type="curve" smooth="yes"/>
      <point x="401" y="192"/>
      <point x="355" y="208"/>
      <point x="314" y="225" type="curve"/>
      <point x="328" y="404"/>
      <point x="360" y="727"/>
      <point x="573" y="727" type="curve" smooth="yes"/>
      <point x="652" y="727"/>
      <point x="698" y="647"/>
      <point x="698" y="537" type="curve" smooth="yes"/>
      <point x="698" y="406"/>
      <point x="642" y="192"/>
    </contour>
    <contour>
      <point x="483" y="2" type="curve" smooth="yes"/>
      <point x="746" y="2"/>
      <point x="937" y="336"/>
      <point x="937" y="597" type="curve" smooth="yes"/>
      <point x="937" y="836"/>
      <point x="825" y="914"/>
      <point x="709" y="914" type="curve" smooth="yes"/>
      <point x="615" y="914"/>
      <point x="519" y="863"/>
      <point x="478" y="805" type="curve"/>
      <point x="462" y="816" type="line"/>
      <point x="625" y="1014"/>
      <point x="882" y="1280"/>
      <point x="882" y="1631" type="curve" smooth="yes"/>
      <point x="882" y="1779"/>
      <point x="809" y="1920"/>
      <point x="624" y="1920" type="curve" smooth="yes"/>
      <point x="442" y="1920"/>
      <point x="352" y="1662"/>
      <point x="300" y="1512" type="curve" smooth="yes"/>
      <point x="165" y="1123"/>
      <point x="76" y="638"/>
      <point x="58" y="152" type="curve"/>
      <point x="59" y="150"/>
      <point x="64" y="145"/>
      <point x="76" y="137" type="curve" smooth="yes"/>
      <point x="176" y="69"/>
      <point x="318" y="2"/>
    </contour>
  </outline>
</glyph>
<glyph name="d.init" format="1">
  <advance width="1128"/>
  <outline>
    <contour>
      <point x="9" y="378" type="curve" smooth="yes"/>
      <point x="83" y="405"/>
      <point x="179" y="456"/>
      <point x="169" y="462" type="curve"/>
      <point x="146" y="638" type="line"/>
      <point x="146" y="638"/>
      <point x="41" y="588"/>
      <point x="-38" y="561" type="curve" smooth="yes"/>
      <point x="-118" y="533"/>
      <point x="-64" y="350"/>
    </contour>
    <contour>
      <point x="855" y="739" type="curve"/>
      <point x="943" y="1141"/>
      <point x="1065" y="1680"/>
      <point x="1255" y="1680" type="curve" smooth="yes"/>
      <point x="1281" y="1680"/>
      <point x="1301" y="1667"/>
      <point x="1301" y="1619" type="curve" smooth="yes"/>
      <point x="1301" y="1344"/>
      <point x="1068" y="1038"/>
    </contour>
    <contour>
      <point x="298" y="-16" type="curve" smooth="yes"/>
      <point x="450" y="-16"/>
      <point x="559" y="57"/>
      <point x="625" y="193" type="curve"/>
      <point x="673" y="61"/>
      <point x="774" y="-8"/>
      <point x="896" y="-8" type="curve" smooth="yes"/>
      <point x="1112" y="-8"/>
      <point x="1266" y="130"/>
      <point x="1371" y="248" type="curve" smooth="yes"/>
      <point x="1381" y="260"/>
      <point x="1401" y="290"/>
      <point x="1401" y="318" type="curve" smooth="yes"/>
      <point x="1401" y="371"/>
      <point x="1358" y="404"/>
      <point x="1315" y="403" type="curve" smooth="yes"/>
      <point x="1296" y="403"/>
      <point x="1283" y="402"/>
      <point x="1271" y="389" type="curve" smooth="yes"/>
      <point x="1214" y="326"/>
      <point x="1067" y="175"/>
      <point x="936" y="175" type="curve" smooth="yes"/>
      <point x="852" y="175"/>
      <point x="801" y="260"/>
      <point x="824" y="454" type="curve"/>
      <point x="1080" y="788"/>
      <point x="1517" y="1273"/>
      <point x="1517" y="1727" type="curve" smooth="yes"/>
      <point x="1517" y="1828"/>
      <point x="1440" y="1921"/>
      <point x="1320" y="1921" type="curve" smooth="yes"/>
      <point x="1025" y="1921"/>
      <point x="820" y="1520"/>
      <point x="690" y="951" type="curve"/>
      <point x="379" y="1052"/>
      <point x="36" y="648"/>
      <point x="36" y="283" type="curve" smooth="yes"/>
      <point x="36" y="102"/>
      <point x="146" y="-16"/>
    </contour>
    <contour>
      <point x="364" y="190" type="curve" smooth="yes"/>
      <point x="323" y="190"/>
      <point x="265" y="207"/>
      <point x="265" y="325" type="curve" smooth="yes"/>
      <point x="265" y="527"/>
      <point x="437" y="773"/>
      <point x="663" y="773" type="curve"/>
      <point x="612" y="551" type="line" smooth="yes"/>
      <point x="545" y="261"/>
      <point x="465" y="190"/>
    </contour>
  </outline>
</glyph>
<glyph name="i_t" format="1">
  <advance width="1487"/>
  <outline>
    <contour>
      <point x="1112" y="963" type="curve" smooth="yes"/>
      <point x="1112" y="963"/>
      <point x="1284" y="1583"/>
      <point x="1420" y="1583" type="curve" smooth="yes"/>
      <point x="1468" y="1583"/>
      <point x="1487" y="1562"/>
      <point x="1487" y="1527" type="curve" smooth="yes"/>
      <point x="1487" y="1370"/>
      <point x="1112" y="963"/>
    </contour>
    <contour>
      <point x="1180" y="-10" type="curve" smooth="yes"/>
      <point x="1363" y="-10"/>
      <point x="1506" y="135"/>
      <point x="1622" y="301" type="curve" smooth="yes"/>
      <point x="1639" y="325"/>
      <point x="1645" y="349"/>
      <point x="1645" y="369" type="curve" smooth="yes"/>
      <point x="1645" y="420"/>
      <point x="1605" y="454"/>
      <point x="1572" y="454" type="curve" smooth="yes"/>
      <point x="1560" y="454"/>
      <point x="1550" y="449"/>
      <point x="1542" y="440" type="curve"/>
      <point x="1465" y="361"/>
      <point x="1345" y="204"/>
      <point x="1199" y="204" type="curve" smooth="yes"/>
      <point x="1064" y="204"/>
      <point x="1025" y="312"/>
      <point x="1025" y="440" type="curve" smooth="yes"/>
      <point x="1025" y="569"/>
      <point x="1063" y="719"/>
      <point x="1083" y="802" type="curve"/>
      <point x="1488" y="802" type="line" smooth="yes"/>
      <point x="1540" y="802"/>
      <point x="1560" y="837"/>
      <point x="1560" y="872" type="curve" smooth="yes"/>
      <point x="1560" y="913"/>
      <point x="1538" y="954"/>
      <point x="1508" y="954" type="curve" smooth="yes"/>
      <point x="1289" y="954" type="line"/>
      <point x="1509" y="1098"/>
      <point x="1688" y="1341"/>
      <point x="1688" y="1526" type="curve" smooth="yes"/>
      <point x="1688" y="1637"/>
      <point x="1599" y="1754"/>
      <point x="1413" y="1754" type="curve" smooth="yes"/>
      <point x="1202" y="1754"/>
      <point x="1041" y="1503"/>
      <point x="873" y="954" type="curve"/>
      <point x="812" y="953"/>
      <point x="751" y="953"/>
      <point x="707" y="952" type="curve"/>
      <point x="674" y="924"/>
      <point x="660" y="893"/>
      <point x="660" y="868" type="curve" smooth="yes"/>
      <point x="660" y="839"/>
      <point x="679" y="817"/>
      <point x="709" y="817" type="curve" smooth="yes"/>
      <point x="750" y="817"/>
      <point x="824" y="813"/>
      <point x="843" y="813" type="curve"/>
      <point x="816" y="677"/>
      <point x="803" y="557"/>
      <point x="803" y="453" type="curve" smooth="yes"/>
      <point x="803" y="149"/>
      <point x="922" y="-10"/>
    </contour>
    <contour>
      <point x="589" y="1152" type="curve" smooth="yes"/>
      <point x="699" y="1152"/>
      <point x="773" y="1218"/>
      <point x="773" y="1331" type="curve" smooth="yes"/>
      <point x="773" y="1429"/>
      <point x="705" y="1471"/>
      <point x="613" y="1471" type="curve" smooth="yes"/>
      <point x="503" y="1471"/>
      <point x="417" y="1408"/>
      <point x="417" y="1304" type="curve" smooth="yes"/>
      <point x="417" y="1203"/>
      <point x="482" y="1152"/>
    </contour>
    <contour>
      <point x="357" y="-3" type="curve" smooth="yes"/>
      <point x="641" y="-3"/>
      <point x="822" y="339"/>
      <point x="892" y="523" type="curve" smooth="yes"/>
      <point x="905" y="557"/>
      <point x="923" y="589"/>
      <point x="923" y="621" type="curve" smooth="yes"/>
      <point x="923" y="662"/>
      <point x="906" y="697"/>
      <point x="877" y="697" type="curve" smooth="yes"/>
      <point x="862" y="697"/>
      <point x="845" y="697"/>
      <point x="825" y="696" type="curve"/>
      <point x="787" y="636"/>
      <point x="591" y="216"/>
      <point x="453" y="216" type="curve" smooth="yes"/>
      <point x="393" y="216"/>
      <point x="360" y="273"/>
      <point x="360" y="345" type="curve" smooth="yes"/>
      <point x="360" y="487"/>
      <point x="423" y="724"/>
      <point x="497" y="863" type="curve" smooth="yes"/>
      <point x="503" y="874"/>
      <point x="505" y="884"/>
      <point x="505" y="894" type="curve" smooth="yes"/>
      <point x="505" y="933"/>
      <point x="463" y="960"/>
      <point x="425" y="960" type="curve" smooth="yes"/>
      <point x="362" y="960"/>
      <point x="320" y="951"/>
      <point x="278" y="873" type="curve" smooth="yes"/>
      <point x="197" y="722"/>
      <point x="114" y="458"/>
      <point x="114" y="282" type="curve" smooth="yes"/>
      <point x="114" y="124"/>
      <point x="215" y="-3"/>
    </contour>
  </outline>
</glyph>
<glyph name="l_k.space" format="1">
  <advance width="2270"/>
  <outline>
    <contour>
      <point x="1052" y="685" type="curve"/>
      <point x="1071" y="936"/>
      <point x="1097" y="1186"/>
      <point x="1164" y="1397" type="curve" smooth="yes"/>
      <point x="1192" y="1487"/>
      <point x="1238" y="1682"/>
      <point x="1350" y="1682" type="curve" smooth="yes"/>
      <point x="1364" y="1682"/>
      <point x="1371" y="1671"/>
      <point x="1371" y="1650" type="curve" smooth="yes"/>
      <point x="1371" y="1607"/>
      <point x="1355" y="1562"/>
      <point x="1342" y="1523" type="curve" smooth="yes"/>
      <point x="1252" y="1251"/>
      <point x="1146" y="966"/>
    </contour>
    <contour>
      <point x="913" y="-8" type="curve" smooth="yes"/>
      <point x="1089" y="-8"/>
      <point x="1259" y="472"/>
      <point x="1347" y="587" type="curve" smooth="yes"/>
      <point x="1377" y="626"/>
      <point x="1404" y="694"/>
      <point x="1444" y="694" type="curve" smooth="yes"/>
      <point x="1466" y="694"/>
      <point x="1479" y="689"/>
      <point x="1479" y="671" type="curve" smooth="yes"/>
      <point x="1479" y="662"/>
      <point x="1474" y="651"/>
      <point x="1468" y="638" type="curve" smooth="yes"/>
      <point x="1411" y="520"/>
      <point x="1292" y="367"/>
      <point x="1292" y="241" type="curve" smooth="yes"/>
      <point x="1292" y="83"/>
      <point x="1407" y="-6"/>
      <point x="1539" y="-6" type="curve" smooth="yes"/>
      <point x="1733" y="-6"/>
      <point x="1888" y="136"/>
      <point x="2023" y="431" type="curve" smooth="yes"/>
      <point x="2039" y="468"/>
      <point x="2049" y="499"/>
      <point x="2049" y="525" type="curve" smooth="yes"/>
      <point x="2049" y="586"/>
      <point x="2008" y="620"/>
      <point x="1967" y="620" type="curve" smooth="yes"/>
      <point x="1942" y="620"/>
      <point x="1917" y="607"/>
      <point x="1901" y="581" type="curve" smooth="yes"/>
      <point x="1819" y="447"/>
      <point x="1700" y="193"/>
      <point x="1555" y="193" type="curve" smooth="yes"/>
      <point x="1524" y="193"/>
      <point x="1511" y="209"/>
      <point x="1511" y="236" type="curve" smooth="yes"/>
      <point x="1511" y="355"/>
      <point x="1763" y="689"/>
      <point x="1763" y="776" type="curve" smooth="yes"/>
      <point x="1763" y="889"/>
      <point x="1701" y="962"/>
      <point x="1591" y="962" type="curve" smooth="yes"/>
      <point x="1548" y="962"/>
      <point x="1509" y="951"/>
      <point x="1475" y="930" type="curve" smooth="yes"/>
      <point x="1339" y="845"/>
      <point x="1260" y="686"/>
      <point x="1154" y="559" type="curve"/>
      <point x="1136" y="572" type="line"/>
      <point x="1249" y="752" type="line"/>
      <point x="1386" y="995.999"/>
      <point x="1572" y="1320"/>
      <point x="1572" y="1685" type="curve" smooth="yes"/>
      <point x="1572" y="1817"/>
      <point x="1533" y="1907"/>
      <point x="1400" y="1907" type="curve" smooth="yes"/>
      <point x="1247" y="1907"/>
      <point x="1156" y="1799"/>
      <point x="1096" y="1698" type="curve" smooth="yes"/>
      <point x="919" y="1402"/>
      <point x="846" y="949"/>
      <point x="828" y="486" type="curve"/>
      <point x="720" y="384"/>
      <point x="545" y="244"/>
      <point x="396" y="244" type="curve" smooth="yes"/>
      <point x="340" y="244"/>
      <point x="330" y="397"/>
      <point x="330" y="461" type="curve" smooth="yes"/>
      <point x="330" y="498"/>
      <point x="333" y="546"/>
      <point x="348" y="565" type="curve" smooth="yes"/>
      <point x="411" y="644"/>
      <point x="473" y="729"/>
      <point x="533" y="821" type="curve" smooth="yes"/>
      <point x="681" y="1047"/>
      <point x="849" y="1341"/>
      <point x="849" y="1694" type="curve" smooth="yes"/>
      <point x="849" y="1810"/>
      <point x="820" y="1920"/>
      <point x="705" y="1920" type="curve" smooth="yes"/>
      <point x="565" y="1920"/>
      <point x="472" y="1837"/>
      <point x="402" y="1748" type="curve" smooth="yes"/>
      <point x="187" y="1476"/>
      <point x="72" y="997.999"/>
      <point x="72" y="519" type="curve" smooth="yes"/>
      <point x="72" y="320"/>
      <point x="139" y="0"/>
      <point x="329" y="0" type="curve" smooth="yes"/>
      <point x="524" y="0"/>
      <point x="678" y="88"/>
      <point x="823" y="208" type="curve"/>
      <point x="825" y="108"/>
      <point x="842" y="-8"/>
    </contour>
    <contour>
      <point x="320" y="740" type="curve"/>
      <point x="320" y="974.999"/>
      <point x="404" y="1641"/>
      <point x="630" y="1641" type="curve" smooth="yes"/>
      <point x="651" y="1641"/>
      <point x="661" y="1620"/>
      <point x="661" y="1593" type="curve" smooth="yes"/>
      <point x="661" y="1552"/>
      <point x="648" y="1508"/>
      <point x="635" y="1460" type="curve" smooth="yes"/>
      <point x="564" y="1198"/>
      <point x="442" y="955"/>
    </contour>
  </outline>
</glyph>
